<svg width="48" height="48" viewBox="0 0 48 48" fill="none" xmlns="http://www.w3.org/2000/svg">
<path d="M36.1 7.5H38.5C39.6 7.5 40.5 8.4 40.5 9.5V12.5C40.5 13.6 39.6 14.5 38.5 14.5H18" stroke="black" stroke-width="3" stroke-miterlimit="10" stroke-linecap="round" stroke-linejoin="round"/>
<path d="M13 14.5H9.5C8.4 14.5 7.5 13.6 7.5 12.5V9.5C7.5 8.4 8.4 7.5 9.5 7.5H30.8" stroke="black" stroke-width="3" stroke-miterlimit="10" stroke-linecap="round" stroke-linejoin="round"/>
<path d="M13.3 27.5H9.5C8.4 27.5 7.5 26.6 7.5 25.5V22.5C7.5 21.4 8.4 20.5 9.5 20.5H29.5" stroke="black" stroke-width="3" stroke-miterlimit="10" stroke-linecap="round" stroke-linejoin="round"/>
<path d="M35 20.5H38.5C39.6 20.5 40.5 21.4 40.5 22.5V25.5C40.5 26.6 39.6 27.5 38.5 27.5H18.5" stroke="black" stroke-width="3" stroke-miterlimit="10" stroke-linecap="round" stroke-linejoin="round"/>
<path d="M13.5 40.5H9.5C8.4 40.5 7.5 39.6 7.5 38.5V35.5C7.5 34.4 8.4 33.5 9.5 33.5H29.1" stroke="black" stroke-width="3" stroke-miterlimit="10" stroke-linecap="round" stroke-linejoin="round"/>
<path d="M34.2 33.5H38.5C39.6 33.5 40.5 34.4 40.5 35.5V38.5C40.5 39.6 39.6 40.5 38.5 40.5H18.5" stroke="black" stroke-width="3" stroke-miterlimit="10" stroke-linecap="round" stroke-linejoin="round"/>
</svg>
